<svg xmlns="http://www.w3.org/2000/svg" xmlns:xlink="http://www.w3.org/1999/xlink" fill-rule="evenodd" stroke-linejoin="round" stroke-miterlimit="1.414" clip-rule="evenodd" viewBox="0 0 425 422" id="cdn"><g transform="matrix(.54636 0 0 .54266 -2372.315 0)"><path fill="none" d="M4342 0h777v777h-777z"></path><circle cx="350.5" cy="332.5" r="215.5" fill="url(#a)" transform="matrix(1.5155 0 0 1.52585 4194.55 -118.023)"></circle><g fill="#2684fb" opacity=".359"><path d="M4787.924 58.703c-.127.107 63.575-3.575 36.35 241.327-22.022 198.105-86.319 417.04-169.017 431.384 35.64 5.89 91.162-43.242 131.192-143.73 53.736-134.89 68.295-307.98 63.386-413.406-2.79-59.915-40.264-133.79-61.911-115.575Z"></path><path d="M4835.602 712.04c.145-.092-57.001 19.564-146.108-193.066-79.256-189.13-105.188-414.058-37.268-467.627-35.12 12.14-69.822 97.811-57.362 208.571 16.726 148.678 78.04 295.422 133.578 388.614 31.563 52.966 92.132 73.054 107.16 63.508Z"></path><path d="M5058.561 331.195c-.155-.057 53.27 37.4-218.853 146.08-182.564 72.914-409.717 92.65-456.827 23.733 9.478 34.643 72.026 62.155 178.716 57.223 143.213-6.621 310.845-60.617 401.573-111.562 76.515-42.964 125.624-104.475 95.391-115.474ZM4378.54 473.977c.155.074-30.091-58.533 209.896-136.066 194.13-62.717 425.492-94.292 473.681-22.238-9.503-36.141-78.718-67.865-189.337-63.308-148.489 6.119-316.136 65.339-412.448 114.42-54.735 27.892-107.899 94.426-81.792 107.192Z"></path><path d="M4950.643 645.172c.12-.114-114.093 114.485-352.038-88.577-150.074-128.072-178.04-326.753-131.293-400.778-29.364 24.453-50.522 119.584-14.427 219.266 52.092 143.868 147.761 234.172 255.37 278.802 142.662 59.168 210.213 21.99 242.388-8.713Z"></path><path d="M5014.709 560.485c-3.197 1.952-92.467 22.132-284.04-121.268-153.47-114.878-213.532-290.916-188.647-326.843-18.903 17.65-17.518 102.621 35.599 185.38 76.43 119.08 127.31 151.831 222.369 210.61 84.41 52.195 201.992 76.251 214.719 52.12Z"></path></g><g transform="matrix(1.2494 0 0 1.25794 4307.359 -49.893)"><circle cx="425" cy="250" r="25" fill="none" stroke="#fff" stroke-width="20.51"></circle><circle cx="425" cy="250" r="25" fill="#2684fb"></circle></g><g transform="matrix(1.2494 0 0 1.25794 4307.359 -49.893)"><clipPath id="a"><circle cx="432" cy="242" r="6"></circle></clipPath><g clip-path="url(#a)"><use width="8.192" height="8.192" x="298.708" y="147.253" transform="translate(27.723 39.662) scale(1.33333)" xlink:href="#_Image3"></use></g></g><g transform="matrix(1.2494 0 0 1.25794 4082.039 -.291)"><circle cx="425" cy="250" r="25" fill="none" stroke="#fff" stroke-width="20.51"></circle><circle cx="425" cy="250" r="25" fill="#2684fb"></circle></g><g transform="matrix(1.2494 0 0 1.25794 4082.039 -.291)"><clipPath id="b"><circle cx="432" cy="242" r="6"></circle></clipPath><g clip-path="url(#b)"><use width="8.192" height="8.192" x="163.453" y="176.827" transform="translate(208.062 .23) scale(1.33333)" xlink:href="#_Image3"></use></g></g><g transform="matrix(1.2494 0 0 1.25794 3930.839 64.665)"><circle cx="425" cy="250" r="25" fill="none" stroke="#fff" stroke-width="20.51"></circle><circle cx="425" cy="250" r="25" fill="#2684fb"></circle></g><g transform="matrix(1.2494 0 0 1.25794 3930.839 64.665)"><clipPath id="c"><circle cx="432" cy="242" r="6"></circle></clipPath><g clip-path="url(#c)"><use width="8.192" height="8.192" x="72.687" y="215.554" transform="translate(329.083 -51.406) scale(1.33333)" xlink:href="#_Image3"></use></g></g><g transform="matrix(1.2494 0 0 1.25794 4028.129 232.573)"><circle cx="425" cy="250" r="25" fill="none" stroke="#fff" stroke-width="20.51"></circle><circle cx="425" cy="250" r="25" fill="#2684fb"></circle></g><g transform="matrix(1.2494 0 0 1.25794 4028.129 232.573)"><clipPath id="d"><circle cx="432" cy="242" r="6"></circle></clipPath><g clip-path="url(#d)"><use width="8.192" height="8.192" x="131.089" y="315.663" transform="translate(251.214 -184.884) scale(1.33333)" xlink:href="#_Image3"></use></g></g><g transform="matrix(1.2494 0 0 1.25794 4271.259 185.128)"><circle cx="425" cy="250" r="25" fill="none" stroke="#fff" stroke-width="20.51"></circle><circle cx="425" cy="250" r="25" fill="#2684fb"></circle></g><g transform="matrix(1.2494 0 0 1.25794 4271.259 185.128)"><clipPath id="e"><circle cx="432" cy="242" r="6"></circle></clipPath><g clip-path="url(#e)"><use width="8.192" height="8.192" x="277.035" y="287.376" transform="translate(56.62 -147.168) scale(1.33333)" xlink:href="#_Image3"></use></g></g><g transform="matrix(1.2494 0 0 1.25794 4151.489 213.435)"><circle cx="425" cy="250" r="25" fill="none" stroke="#fff" stroke-width="20.51"></circle><circle cx="425" cy="250" r="25" fill="#2684fb"></circle></g><g transform="matrix(1.2494 0 0 1.25794 4151.489 213.435)"><clipPath id="f"><circle cx="432" cy="242" r="6"></circle></clipPath><g clip-path="url(#f)"><use width="8.192" height="8.192" x="205.14" y="304.253" transform="translate(152.479 -169.671) scale(1.33333)" xlink:href="#_Image3"></use></g></g><g transform="matrix(1.2494 0 0 1.25794 4214.839 346.117)"><circle cx="425" cy="250" r="25" fill="none" stroke="#fff" stroke-width="20.51"></circle><circle cx="425" cy="250" r="25" fill="#2684fb"></circle></g><g transform="matrix(1.2494 0 0 1.25794 4214.839 346.117)"><clipPath id="g"><circle cx="432" cy="242" r="6"></circle></clipPath><g clip-path="url(#g)"><use width="8.192" height="8.192" x="243.167" y="383.359" transform="translate(101.778 -275.146) scale(1.33333)" xlink:href="#_Image3"></use></g></g><g transform="matrix(1.2494 0 0 1.25794 4307.359 -49.893)"><circle cx="425" cy="250" r="25" fill="none" stroke="#fff" stroke-width="20.51"></circle><circle cx="425" cy="250" r="25" fill="#2684fb"></circle></g><g transform="matrix(1.2494 0 0 1.25794 4307.359 -49.893)"><clipPath id="h"><circle cx="432" cy="242" r="6"></circle></clipPath><g clip-path="url(#h)"><use width="8.192" height="8.192" x="298.708" y="147.253" transform="translate(27.723 39.662) scale(1.33333)" xlink:href="#_Image3"></use></g></g></g><defs><radialGradient id="a" cx="0" cy="0" r="1" gradientTransform="translate(365.263 326.261) scale(278.999)" gradientUnits="userSpaceOnUse"><stop offset="0" stop-color="#f7fbff"></stop><stop offset=".5" stop-color="#d9ebff"></stop><stop offset=".74" stop-color="#a3d3ff"></stop><stop offset="1" stop-color="#2684fb"></stop></radialGradient></defs></svg>