<svg xmlns="http://www.w3.org/2000/svg" fill-rule="evenodd" stroke-linecap="round" stroke-miterlimit="10" clip-rule="evenodd" viewBox="0 0 411 402" id="daily-backups"><rect width="409.887" height="400.738" x=".561" y=".919" fill="none"></rect><ellipse cx="194.723" cy="314.768" fill="#2f94fb" fill-opacity=".329" rx="148" ry="34.5"></ellipse><path fill="url(#_Linear1)" d="M352.723,295.268l-0.159,0l0.159,1.5c0,20.71 -42.517,42.5 -157.5,42.5c-106.964,0 -157.5,-21.79 -157.5,-42.5l0.16,-1.5l-0.16,0l0,-60l315,0l0,60Z"></path><path fill="#f0f7ff" d="M195.223,197.268c86.985,0 157.5,16.789 157.5,37.5c0,20.71 -41.306,42.5 -157.5,42.5c-117.818,0 -157.5,-21.79 -157.5,-42.5c0,-20.711 70.516,-37.5 157.5,-37.5Z"></path><ellipse cx="194.723" cy="235.268" fill="#91d4ff" rx="148" ry="35"></ellipse><ellipse cx="194.723" cy="225.268" fill="#2f94fb" fill-opacity=".988" rx="148" ry="35"></ellipse><path fill="url(#_Linear2)" d="M352.723,207.268l-0.159,0l0.159,1.5c0,20.71 -42.517,42.5 -157.5,42.5c-106.964,0 -157.5,-21.79 -157.5,-42.5l0.16,-1.5l-0.16,0l0,-60l315,0l0,60Z"></path><path fill="#f0f7ff" d="M195.223,110.268c86.985,0 157.5,16.789 157.5,37.5c0,20.71 -41.306,42.5 -157.5,42.5c-117.818,0 -157.5,-21.79 -157.5,-42.5c0,-20.711 70.516,-37.5 157.5,-37.5Z"></path><ellipse cx="194.723" cy="147.268" fill="url(#_Radial3)" rx="148" ry="35"></ellipse><ellipse cx="194.723" cy="134.268" fill="#2f94fb" fill-opacity=".812" rx="148" ry="35"></ellipse><path fill="url(#_Linear4)" d="M352.723,116.268l-0.159,0l0.159,1.5c0,20.71 -42.517,42.5 -157.5,42.5c-106.964,0 -157.5,-21.79 -157.5,-42.5l0.16,-1.5l-0.16,0l0,-60l315,0l0,60Z"></path><path fill="#f0f7ff" d="M195.223,19.268c86.985,0 157.5,16.789 157.5,37.5c0,20.71 -41.306,42.5 -157.5,42.5c-117.818,0 -157.5,-21.79 -157.5,-42.5c0,-20.711 70.516,-37.5 157.5,-37.5Z"></path><ellipse cx="194.723" cy="56.268" fill="url(#_Linear5)" rx="142" ry="31"></ellipse><circle cx="302.723" cy="296.268" r="67" fill="url(#_Radial6)"></circle><path fill="url(#_Linear7)" d="M302.723,211.268c46.913,0 85,38.087 85,85c0,46.913 -38.087,85 -85,85c-46.912,0 -85,-38.087 -85,-85c0,-46.913 38.088,-85 85,-85Zm0,19c36.427,0 66,29.573 66,66c0,36.426 -29.573,66 -66,66c-36.426,0 -66,-29.574 -66,-66c0,-36.427 29.574,-66 66,-66Z"></path><path fill="#fff" fill-rule="nonzero" d="M303.48 218.6c2.281.333 2.305 1.352 2.41 2.399.347 3.451-6.072 2.854-11.072 3.428-23.395 2.69-44.922 17.41-56.068 38.456 0 0-.679 1.137-1.835 1.372-2.205.447-4.026-1.808-2.439-4.746 13.381-24.494 40.044-40.737 68.396-40.92 0 0 .301-.003.608.011zM228.132 289.178c.524.067.607.118.828.215 2.291 1.008 1.399 4.963 1.452 8.486.108 7.315 1.328 14.592 3.587 21.555 0 0 .231 2.674-1.64 3.348-3.252 1.172-4.609-4.7-5.778-10.513-1.341-6.667-1.797-13.549-1.394-20.278.04-.661.562-2.818 2.773-2.823.057.003.115.007.172.01z"></path><path fill="none" stroke="#cce6ff" stroke-width="5.36" d="M352.082 321.532c-10.151 19.069-30.376 32.07-53.67 32.07M356.042 274.946c1.943 5.875 2.993 12.149 2.993 18.666 0 1.314-.043 2.618-.127 3.911"></path><path fill="#17bc00" d="M307.723,248.268c0,-3.864 -3.136,-7 -7,-7c-3.863,0 -7,3.136 -7,7l0,52c0,3.863 3.137,7 7,7c3.864,0 7,-3.137 7,-7l0,-52Z"></path><path fill="#0bbc00" d="M340.723,300.268c0,-3.864 -3.136,-7 -7,-7l-33,0c-3.863,0 -7,3.136 -7,7c0,3.863 3.137,7 7,7l33,0c3.864,0 7,-3.137 7,-7Z"></path><defs><linearGradient id="_Linear1" x2="1" gradientTransform="translate(39.521 278.316) scale(312.846)" gradientUnits="userSpaceOnUse"><stop offset="0" stop-color="#98d7ff"></stop><stop offset=".11" stop-color="#d2e9ff"></stop><stop offset=".37" stop-color="#e8f4ff"></stop><stop offset=".44" stop-color="#d4e9ff"></stop><stop offset=".68" stop-color="#cce6ff"></stop><stop offset=".84" stop-color="#a5d5ff"></stop><stop offset="1" stop-color="#4cb9ff"></stop></linearGradient><linearGradient id="_Linear2" x2="1" gradientTransform="translate(39.521 190.316) scale(312.846)" gradientUnits="userSpaceOnUse"><stop offset="0" stop-color="#98d7ff"></stop><stop offset=".11" stop-color="#d2e9ff"></stop><stop offset=".37" stop-color="#e8f4ff"></stop><stop offset=".44" stop-color="#d4e9ff"></stop><stop offset=".68" stop-color="#cce6ff"></stop><stop offset=".84" stop-color="#a5d5ff"></stop><stop offset="1" stop-color="#4cb9ff"></stop></linearGradient><linearGradient id="_Linear4" x2="1" gradientTransform="translate(39.521 99.316) scale(312.846)" gradientUnits="userSpaceOnUse"><stop offset="0" stop-color="#98d7ff"></stop><stop offset=".11" stop-color="#d2e9ff"></stop><stop offset=".37" stop-color="#e8f4ff"></stop><stop offset=".44" stop-color="#d4e9ff"></stop><stop offset=".68" stop-color="#cce6ff"></stop><stop offset=".84" stop-color="#a5d5ff"></stop><stop offset="1" stop-color="#4cb9ff"></stop></linearGradient><linearGradient id="_Linear5" x2="1" gradientTransform="rotate(90 90.805 119.081) scale(58.191)" gradientUnits="userSpaceOnUse"><stop offset="0" stop-color="#cae5ff"></stop><stop offset="1" stop-color="#adf"></stop></linearGradient><linearGradient id="_Linear7" x2="1" gradientTransform="rotate(90 31.094 341.935) scale(113.664)" gradientUnits="userSpaceOnUse"><stop offset="0" stop-color="#2684fb"></stop><stop offset="1" stop-color="#0563c5"></stop></linearGradient><radialGradient id="_Radial3" cx="0" cy="0" r="1" gradientTransform="translate(180.814 217.87) scale(287.112)" gradientUnits="userSpaceOnUse"><stop offset="0" stop-color="#97d7ff" stop-opacity=".988"></stop><stop offset=".47" stop-color="#6ec6ff" stop-opacity=".988"></stop><stop offset="1" stop-color="#0097ff" stop-opacity=".988"></stop></radialGradient><radialGradient id="_Radial6" cx="0" cy="0" r="1" gradientTransform="translate(303.066 294.26) scale(79.3329)" gradientUnits="userSpaceOnUse"><stop offset="0" stop-color="#fff"></stop><stop offset=".55" stop-color="#f5f9fe"></stop><stop offset="1" stop-color="#d0e4fc"></stop></radialGradient></defs></svg>