<svg xmlns="http://www.w3.org/2000/svg" fill-rule="evenodd" stroke-linejoin="round" stroke-miterlimit="1.414" clip-rule="evenodd" viewBox="0 0 431 456" id="free-trial"><rect width="429.471" height="455.396" x=".562" y=".352" fill="none"></rect><path fill="url(#_Radial1)" d="M115.707,108.095c1.887,2.468 4.831,4.103 7.981,4.161l2.38,0.014c2.415,1.038 5.078,1.614 7.875,1.614l0.66,0c-31.409,23.543 -51.773,61.085 -51.773,103.294c0,57.747 38.111,106.757 90.487,123.152c-3.233,3.71 -6.648,8.351 -8.926,13.432c-56.857,-19.552 -97.817,-73.592 -97.817,-137.027c0,-43.23 19.025,-82.096 49.133,-108.64Zm66.481,206.395c-42.074,-12.556 -72.82,-51.629 -72.82,-97.753c0,-56.251 45.734,-102.012 101.946,-102.012c56.205,0 101.935,45.761 101.935,102.012c0,33.689 -16.401,63.616 -41.636,82.188c-1.98,-3.855 -9.353,-8.259 -16.993,-9.438c24.841,-14.914 41.493,-42.131 41.493,-73.165c0,-47.021 -38.234,-85.283 -85.228,-85.283c-47.006,0 -85.241,38.262 -85.241,85.283c0,36.963 23.623,68.511 56.544,80.3l0,17.868Zm130.542,-200.976c26.721,26.283 43.312,62.849 43.312,103.221c0,35.977 -13.173,68.932 -34.952,94.286c-6.576,-3.391 -12.756,-4.248 -16.621,-4.386c22.39,-23.197 36.157,-54.749 36.157,-89.457c0,-42.209 -20.363,-79.751 -51.769,-103.294l20.086,0c1.3,0 2.57,-0.125 3.787,-0.37Zm-130.542,157.589c-19.352,-10.419 -32.531,-30.88 -32.531,-54.365c0,-34.019 27.659,-61.694 61.655,-61.694c33.991,0 61.648,27.675 61.648,61.694c0,22.509 -12.106,42.241 -30.138,53.003c0.001,-5.839 -0.04,-12.344 -0.096,-18.826c9.119,-8.389 14.836,-20.413 14.836,-33.748c0,-25.284 -20.557,-45.859 -45.822,-45.859c-25.272,0 -45.828,20.575 -45.828,45.859c0,14.026 6.324,26.603 16.276,35.013l0,18.923Z"></path><clipPath id="a"><path d="M115.707,108.095c1.887,2.468 4.831,4.103 7.981,4.161l2.38,0.014c2.415,1.038 5.078,1.614 7.875,1.614l0.66,0c-31.409,23.543 -51.773,61.085 -51.773,103.294c0,57.747 38.111,106.757 90.487,123.152c-3.233,3.71 -6.648,8.351 -8.926,13.432c-56.857,-19.552 -97.817,-73.592 -97.817,-137.027c0,-43.23 19.025,-82.096 49.133,-108.64Zm66.481,206.395c-42.074,-12.556 -72.82,-51.629 -72.82,-97.753c0,-56.251 45.734,-102.012 101.946,-102.012c56.205,0 101.935,45.761 101.935,102.012c0,33.689 -16.401,63.616 -41.636,82.188c-1.98,-3.855 -9.353,-8.259 -16.993,-9.438c24.841,-14.914 41.493,-42.131 41.493,-73.165c0,-47.021 -38.234,-85.283 -85.228,-85.283c-47.006,0 -85.241,38.262 -85.241,85.283c0,36.963 23.623,68.511 56.544,80.3l0,17.868Zm130.542,-200.976c26.721,26.283 43.312,62.849 43.312,103.221c0,35.977 -13.173,68.932 -34.952,94.286c-6.576,-3.391 -12.756,-4.248 -16.621,-4.386c22.39,-23.197 36.157,-54.749 36.157,-89.457c0,-42.209 -20.363,-79.751 -51.769,-103.294l20.086,0c1.3,0 2.57,-0.125 3.787,-0.37Zm-130.542,157.589c-19.352,-10.419 -32.531,-30.88 -32.531,-54.365c0,-34.019 27.659,-61.694 61.655,-61.694c33.991,0 61.648,27.675 61.648,61.694c0,22.509 -12.106,42.241 -30.138,53.003c0.001,-5.839 -0.04,-12.344 -0.096,-18.826c9.119,-8.389 14.836,-20.413 14.836,-33.748c0,-25.284 -20.557,-45.859 -45.822,-45.859c-25.272,0 -45.828,20.575 -45.828,45.859c0,14.026 6.324,26.603 16.276,35.013l0,18.923Z"></path></clipPath><g clip-path="url(#a)"><path fill="none" d="M211.312,278.437c-33.996,0 -61.655,-27.677 -61.655,-61.699c0,-34.019 27.659,-61.694 61.655,-61.694c33.991,0 61.648,27.675 61.648,61.694c0,34.022 -27.657,61.699 -61.648,61.699Zm0.428,-107.129c-25.272,0 -45.828,20.575 -45.828,45.859c0,25.287 20.556,45.861 45.828,45.861c25.265,0 45.822,-20.574 45.822,-45.861c0,-25.284 -20.557,-45.859 -45.822,-45.859Z"></path><path fill="none" d="M211.314,318.755c-56.212,0 -101.946,-45.764 -101.946,-102.018c0,-56.251 45.734,-102.012 101.946,-102.012c56.205,0 101.935,45.761 101.935,102.012c0,56.254 -45.73,102.018 -101.935,102.018Zm-0.429,-187.716c-47.006,0 -85.241,38.262 -85.241,85.283c0,47.025 38.235,85.286 85.241,85.286c46.994,0 85.228,-38.261 85.228,-85.286c0,-47.021 -38.234,-85.283 -85.228,-85.283Z"></path><path fill="none" d="M211.317,361.581c-79.81,0 -144.743,-64.976 -144.743,-144.846c0,-79.865 64.933,-144.835 144.743,-144.835c79.798,0 144.725,64.97 144.725,144.835c0,79.87 -64.927,144.846 -144.725,144.846Zm0.42,-273.402c-71.085,0 -128.907,57.874 -128.907,128.999c0,71.13 57.822,129.004 128.907,129.004c71.068,0 128.889,-57.874 128.889,-129.004c0,-71.125 -57.821,-128.999 -128.889,-128.999Z"></path><path fill="none" d="M195.035 198.741c-4.536 2.934-12.847 10.285-12.847 10.285l0 122.572c0 0-21.048 16.865-20.556 34.286.492 17.42 9.421 55.714 9.421 55.714l172.156-47.143c0 0 6.015-34.172-8.565-52.286-14.581-18.114-34.26-15.428-34.26-15.428 0 0-20.68-10.571-28.264-6-.121-6.208-19.158-15.958-29.978-9.429 1.566-.733 0-79.714 0-79.714 0 0-32.142-22.537-47.107-12.857zM328.943 81.884c0-11.039-8.962-20-20-20l-175 0c-11.038 0-20 8.961-20 20l0 12c0 11.038 8.962 20 20 20l175 0c11.038 0 20-8.962 20-20l0-12z"></path></g><path fill="#cce6ff" fill-opacity=".38" d="M375.619,113.35c19.078,30.039 30.131,65.657 30.131,103.811c0,107.065 -87.026,194.164 -193.985,194.164c-106.973,0 -194.007,-87.099 -194.007,-194.164c0,-37.556 10.711,-72.655 29.238,-102.376l1.947,0.099l17.889,0c-20.67,29.163 -32.825,64.758 -32.825,103.139c0,98.539 80.107,178.713 178.59,178.713c98.459,0 178.565,-80.174 178.565,-178.713c0,-38.381 -12.154,-73.976 -32.823,-103.139l9.604,0c2.717,0 5.309,-0.543 7.676,-1.534Zm-277.462,-53.466c31.957,-23.195 71.217,-36.872 113.608,-36.872c42.386,0 81.641,13.677 113.595,36.872l-29.677,0c-24.818,-13.131 -53.101,-20.567 -83.086,-20.567c-29.993,0 -58.281,7.436 -83.102,20.567l-31.338,0Z"></path><path fill="url(#_Linear3)" d="M291.532,440.119l-78.31,0c-6.086,0 -28.245,-37.266 -30.537,-45.652c-1.368,-1.87 -2.476,-4.215 -3.39,-7.063c-3.437,-10.708 -1.177,-31.122 -1.177,-31.122c-0.286,-7.569 7.163,-14.294 17.032,-15.775l0,-107.616c0,-8.323 6.742,-15.071 15.06,-15.071l3.765,0c8.317,0 15.059,6.748 15.059,15.071l0,68.329c0.403,1.763 1.561,4.648 4.638,4.061c2.247,-2.886 5.543,-4.779 9.327,-5.111l0.939,-0.082c6.781,-0.594 12.889,4.022 14.786,10.69c1.244,0.722 3.108,1.255 5.734,0.741c2.162,-2.322 5.135,-3.844 8.491,-4.138l0.939,-0.082c6.417,-0.562 12.232,3.542 14.415,9.683c0.927,0.629 2.429,1.275 4.502,1.215c1.884,-1.439 4.157,-2.329 6.64,-2.546l0.939,-0.082c7.775,-0.681 14.666,5.488 15.391,13.78l1.238,14.158l0.121,0.157c0,0 -0.746,31.18 -6.024,48.227c-2.76,8.914 -13.098,44.11 -19.578,48.228Z"></path><clipPath id="b"><path d="M291.532,440.119l-78.31,0c-6.086,0 -28.245,-37.266 -30.537,-45.652c-1.368,-1.87 -2.476,-4.215 -3.39,-7.063c-3.437,-10.708 -1.177,-31.122 -1.177,-31.122c-0.286,-7.569 7.163,-14.294 17.032,-15.775l0,-107.616c0,-8.323 6.742,-15.071 15.06,-15.071l3.765,0c8.317,0 15.059,6.748 15.059,15.071l0,68.329c0.403,1.763 1.561,4.648 4.638,4.061c2.247,-2.886 5.543,-4.779 9.327,-5.111l0.939,-0.082c6.781,-0.594 12.889,4.022 14.786,10.69c1.244,0.722 3.108,1.255 5.734,0.741c2.162,-2.322 5.135,-3.844 8.491,-4.138l0.939,-0.082c6.417,-0.562 12.232,3.542 14.415,9.683c0.927,0.629 2.429,1.275 4.502,1.215c1.884,-1.439 4.157,-2.329 6.64,-2.546l0.939,-0.082c7.775,-0.681 14.666,5.488 15.391,13.78l1.238,14.158l0.121,0.157c0,0 -0.746,31.18 -6.024,48.227c-2.76,8.914 -13.098,44.11 -19.578,48.228Z"></path></clipPath><g clip-path="url(#b)"><path fill-opacity=".144" d="M194.397,337.635l0,36.171c0,0 -5.442,-21.949 -5.271,-28.635"></path><ellipse cx="212.217" cy="240.51" fill="url(#_Linear5)" rx="13.815" ry="19.12"></ellipse><ellipse cx="245.6" cy="314.652" fill="url(#_Linear6)" rx="9.036" ry="8.666"></ellipse><ellipse cx="275.719" cy="320.68" fill="url(#_Linear7)" rx="9.036" ry="8.666"></ellipse><ellipse cx="304.96" cy="329.723" fill="url(#_Linear8)" rx="9.036" ry="8.666"></ellipse></g><path fill="#0fbd00" fill-rule="nonzero" d="M68.502 71.036c0-2.07-1.654-3.726-3.604-3.726l-19.915 0c-2.601 0-4.728 2.129-4.728 4.731l0 30.93c0 2.248 1.891 4.14 4.137 4.14 2.363 0 4.254-1.892 4.254-4.14l0-12.537 15.838 0c1.95 0 3.605-1.656 3.605-3.667 0-2.07-1.655-3.726-3.605-3.726l-15.838 0 0-8.339 16.252 0c1.95 0 3.604-1.655 3.604-3.666zM109.219 80.025c0-7.333-5.023-12.715-13.237-12.715l-13.71 0c-2.601 0-4.728 2.129-4.728 4.731l0 30.93c0 2.248 1.891 4.14 4.137 4.14 2.364 0 4.255-1.892 4.255-4.14l0-10.231 6.145 0 6.737 12.242c.769 1.36 2.128 2.129 3.605 2.129 2.482 0 4.137-2.129 4.137-4.14 0-.65-.177-1.36-.532-2.01l-5.437-9.226c4.255-1.006 8.628-4.731 8.628-11.71zm-14.478-5.323c3.368 0 5.909 2.011 5.909 5.323 0 3.312-2.541 5.323-5.909 5.323l-8.805 0 0-10.646 8.805 0zM147.336 102.971c0-1.951-1.655-3.607-3.605-3.607l-16.251 0 0-8.93 15.837 0c1.95 0 3.605-1.656 3.605-3.667 0-2.07-1.655-3.726-3.605-3.726l-15.837 0 0-8.339 16.251 0c1.95 0 3.605-1.655 3.605-3.666 0-2.07-1.655-3.726-3.605-3.726l-19.915 0c-2.601 0-4.728 2.129-4.728 4.731l0 29.984c0 2.602 2.127 4.731 4.728 4.731l19.915 0c1.95 0 3.605-1.656 3.605-3.785zM185.334 102.971c0-1.951-1.655-3.607-3.605-3.607l-16.251 0 0-8.93 15.837 0c1.951 0 3.605-1.656 3.605-3.667 0-2.07-1.654-3.726-3.605-3.726l-15.837 0 0-8.339 16.251 0c1.95 0 3.605-1.655 3.605-3.666 0-2.07-1.655-3.726-3.605-3.726l-19.915 0c-2.6 0-4.728 2.129-4.728 4.731l0 29.984c0 2.602 2.128 4.731 4.728 4.731l19.915 0c1.95 0 3.605-1.656 3.605-3.785zM243.129 71.036c0-2.07-1.655-3.726-3.605-3.726l-24.879 0c-2.009 0-3.664 1.656-3.664 3.608 0 2.129 1.655 3.784 3.664 3.784l8.214 0 0 28.21c0 2.307 1.892 4.199 4.196 4.199 2.364 0 4.255-1.892 4.255-4.199l0-28.21 8.214 0c1.95 0 3.605-1.655 3.605-3.666zM283.373 80.025c0-7.333-5.023-12.715-13.237-12.715l-13.71 0c-2.601 0-4.728 2.129-4.728 4.731l0 30.93c0 2.248 1.891 4.14 4.137 4.14 2.363 0 4.255-1.892 4.255-4.14l0-10.231 6.145 0 6.737 12.242c.769 1.36 2.128 2.129 3.605 2.129 2.482 0 4.137-2.129 4.137-4.14 0-.65-.177-1.36-.532-2.01l-5.437-9.226c4.255-1.006 8.628-4.731 8.628-11.71zm-14.478-5.323c3.368 0 5.909 2.011 5.909 5.323 0 3.312-2.541 5.323-5.909 5.323l-8.805 0 0-10.646 8.805 0zM301.634 102.971l0-31.876c0-2.247-1.892-4.14-4.137-4.14-2.364 0-4.255 1.893-4.255 4.14l0 31.876c0 2.248 1.891 4.14 4.137 4.14 2.363 0 4.255-1.892 4.255-4.14zM347.846 102.617c0-.533-.118-1.065-.295-1.597l-11.465-29.629c-1.123-2.898-4.137-4.672-7.15-4.436-2.778 0-5.437 1.774-6.442 4.436l-11.523 29.629c-.237.532-.296 1.064-.296 1.597 0 2.247 1.773 4.494 4.432 4.494 1.832 0 3.487-1.064 4.137-2.779l1.596-4.258 16.901 0 1.536 4.258c.65 1.715 2.305 2.779 4.078 2.779 2.718 0 4.491-2.306 4.491-4.494zm-12.41-9.936l-12.292 0 6.146-16.973 6.146 16.973zM382.358 102.971c0-1.951-1.655-3.607-3.605-3.607l-13.415 0 0-28.269c0-2.247-1.891-4.14-4.136-4.14-2.364 0-4.255 1.893-4.255 4.14l0 30.93c0 2.602 2.127 4.731 4.727 4.731l17.079 0c1.95 0 3.605-1.656 3.605-3.785z"></path><defs><linearGradient id="_Linear3" x2="1" gradientTransform="rotate(90 65.704 158.719) scale(360.956)" gradientUnits="userSpaceOnUse"><stop offset="0" stop-color="#7ad5fe"></stop><stop offset=".51" stop-color="#3c99fc"></stop><stop offset="1" stop-color="#2684fb"></stop></linearGradient><linearGradient id="_Linear5" x2="1" gradientTransform="scale(38.7863 55.9717) rotate(90 .959 4.557)" gradientUnits="userSpaceOnUse"><stop offset="0" stop-color="#fff" stop-opacity=".251"></stop><stop offset="1" stop-color="#2684fb" stop-opacity="0"></stop></linearGradient><linearGradient id="_Linear6" x2="1" gradientTransform="rotate(90 -25.104 271.818) scale(25.3691)" gradientUnits="userSpaceOnUse"><stop offset="0" stop-color="#fff" stop-opacity=".251"></stop><stop offset="1" stop-color="#2684fb" stop-opacity="0"></stop></linearGradient><linearGradient id="_Linear7" x2="1" gradientTransform="rotate(90 -13.059 289.892) scale(25.3691)" gradientUnits="userSpaceOnUse"><stop offset="0" stop-color="#fff" stop-opacity=".251"></stop><stop offset="1" stop-color="#2684fb" stop-opacity="0"></stop></linearGradient><linearGradient id="_Linear8" x2="1" gradientTransform="rotate(90 -2.96 309.033) scale(25.3691)" gradientUnits="userSpaceOnUse"><stop offset="0" stop-color="#fff" stop-opacity=".251"></stop><stop offset="1" stop-color="#2684fb" stop-opacity="0"></stop></linearGradient><radialGradient id="_Radial1" cx="0" cy="0" r="1" gradientTransform="translate(211.102 215.069) scale(109.515)" gradientUnits="userSpaceOnUse"><stop offset="0" stop-color="#1d98ff"></stop><stop offset="1" stop-color="#cce6ff"></stop></radialGradient></defs></svg>