<svg xmlns:xlink="http://www.w3.org/1999/xlink" xmlns="http://www.w3.org/2000/svg" class="w-[25px] h-[30px]" width="25"  height="30" ><defs><symbol id="shield-done" xmlns="http://www.w3.org/2000/svg" width="25" height="30" viewBox="0 0 25 30">
        <path d="M12.18,29.952C11.687,29.8.091,26.195.091,16.033c0-2.772-.036-4.8-.061-6.283l0-.086c-.068-3.75-.081-4.53.886-5.5C2.07,3.007,10.829,0,12.5,0S22.928,3.007,24.088,4.167c.967.967.952,1.746.886,5.486l0,.092c-.027,1.483-.062,3.512-.062,6.288,0,10.161-11.595,13.77-12.089,13.919A1.047,1.047,0,0,1,12.5,30,1.059,1.059,0,0,1,12.18,29.952ZM2.459,5.746c-.268.272-.278.74-.221,3.876l0,.1c.025,1.49.061,3.529.061,6.316,0,7.689,8.495,11.09,10.2,11.693,1.7-.606,10.2-4.02,10.2-11.693,0-2.888.04-5.011.065-6.416.056-3.134.045-3.6-.239-3.886-.906-.756-8.776-3.52-10.025-3.52S3.369,4.986,2.459,5.746Zm8.217,12.38L7.889,15.336a1.106,1.106,0,0,1,1.565-1.564l2,2.008,4.963-4.963a1.1,1.1,0,0,1,1.561,1.564L12.24,18.126a1.1,1.1,0,0,1-1.563,0Z" fill="#FFFFFF"></path>
    </symbol></defs>
                                        <use xlink:href="#shield-done"></use>
                                    </svg>